<svg xmlns="http://www.w3.org/2000/svg" viewBox="0 0 240 240"><rect x="30" y="44" width="180" height="152" rx="10" fill="#fff" stroke="#e2e2e6"/><rect x="46" y="60" width="26" height="4" rx="2" fill="#b9b9c0"/><rect x="46" y="70" width="38" height="12" rx="2" fill="#111"/><rect x="90" y="72" width="26" height="9" rx="4.5" fill="#d6dbff"/><path d="M46 112h148M46 140h148M46 168h148" stroke="#f0f0f3"/><path d="M46 172C70 168 78 156 98 158S128 138 146 140 178 104 194 96V182H46Z" fill="#2b3bff" opacity=".08"/><path d="M46 172C70 168 78 156 98 158S128 138 146 140 178 104 194 96" fill="none" stroke="#2b3bff" stroke-width="2.5" stroke-linecap="round"/><path d="M130 112v70" stroke="#c9c9cf" stroke-dasharray="3 3"/><circle cx="194" cy="96" r="4.5" fill="#2b3bff" stroke="#fff" stroke-width="2"/></svg>
